<mxfile host="app.diagrams.net" agent="Mozilla/5.0 (Windows NT 10.0; Win64; x64) AppleWebKit/537.36 (KHTML, like Gecko) Chrome/131.0.0.0 Safari/537.36" version="24.9.1">
  <diagram name="Página-1" id="wpQUVx7ueqAIV5VAYtuJ">
    <mxGraphModel dx="1260" dy="686" grid="1" gridSize="10" guides="1" tooltips="1" connect="1" arrows="1" fold="1" page="1" pageScale="1" pageWidth="827" pageHeight="1169" math="0" shadow="0">
      <root>
        <mxCell id="0" />
        <mxCell id="1" parent="0" />
        <mxCell id="n05Avh_tll3DnBHPuBn5-35" style="edgeStyle=orthogonalEdgeStyle;rounded=0;orthogonalLoop=1;jettySize=auto;html=1;" edge="1" parent="1" source="n05Avh_tll3DnBHPuBn5-36">
          <mxGeometry relative="1" as="geometry">
            <mxPoint x="137.5" y="100" as="targetPoint" />
          </mxGeometry>
        </mxCell>
        <mxCell id="n05Avh_tll3DnBHPuBn5-36" value="Início" style="rounded=1;whiteSpace=wrap;html=1;arcSize=50;" vertex="1" parent="1">
          <mxGeometry x="75" y="10" width="125" height="60" as="geometry" />
        </mxCell>
        <mxCell id="n05Avh_tll3DnBHPuBn5-37" style="edgeStyle=orthogonalEdgeStyle;rounded=0;orthogonalLoop=1;jettySize=auto;html=1;" edge="1" parent="1" source="n05Avh_tll3DnBHPuBn5-38">
          <mxGeometry relative="1" as="geometry">
            <mxPoint x="132.5" y="180" as="targetPoint" />
          </mxGeometry>
        </mxCell>
        <mxCell id="n05Avh_tll3DnBHPuBn5-38" value="&lt;div style=&quot;&quot;&gt;&lt;span style=&quot;background-color: initial;&quot;&gt;&quot;Quantidade de capital&quot;&lt;/span&gt;&lt;/div&gt;" style="shape=display;whiteSpace=wrap;html=1;align=center;" vertex="1" parent="1">
          <mxGeometry x="57.5" y="110" width="150" height="50" as="geometry" />
        </mxCell>
        <mxCell id="n05Avh_tll3DnBHPuBn5-39" style="edgeStyle=orthogonalEdgeStyle;rounded=0;orthogonalLoop=1;jettySize=auto;html=1;" edge="1" parent="1" source="n05Avh_tll3DnBHPuBn5-40">
          <mxGeometry relative="1" as="geometry">
            <mxPoint x="137.5" y="270" as="targetPoint" />
          </mxGeometry>
        </mxCell>
        <mxCell id="n05Avh_tll3DnBHPuBn5-40" value="&lt;font style=&quot;font-size: 16px;&quot;&gt;c&lt;/font&gt;" style="shape=manualInput;whiteSpace=wrap;html=1;" vertex="1" parent="1">
          <mxGeometry x="82.5" y="180" width="110" height="60" as="geometry" />
        </mxCell>
        <mxCell id="n05Avh_tll3DnBHPuBn5-41" style="edgeStyle=orthogonalEdgeStyle;rounded=0;orthogonalLoop=1;jettySize=auto;html=1;" edge="1" parent="1" source="n05Avh_tll3DnBHPuBn5-42">
          <mxGeometry relative="1" as="geometry">
            <mxPoint x="132.5" y="350" as="targetPoint" />
          </mxGeometry>
        </mxCell>
        <mxCell id="n05Avh_tll3DnBHPuBn5-42" value="&lt;div style=&quot;&quot;&gt;&quot;Juros?&quot;&lt;/div&gt;" style="shape=display;whiteSpace=wrap;html=1;align=center;" vertex="1" parent="1">
          <mxGeometry x="57.5" y="280" width="150" height="50" as="geometry" />
        </mxCell>
        <mxCell id="n05Avh_tll3DnBHPuBn5-43" style="edgeStyle=orthogonalEdgeStyle;rounded=0;orthogonalLoop=1;jettySize=auto;html=1;" edge="1" parent="1" source="n05Avh_tll3DnBHPuBn5-44">
          <mxGeometry relative="1" as="geometry">
            <mxPoint x="137.5" y="440" as="targetPoint" />
          </mxGeometry>
        </mxCell>
        <mxCell id="n05Avh_tll3DnBHPuBn5-44" value="&lt;span style=&quot;font-size: 16px;&quot;&gt;j&lt;/span&gt;" style="shape=manualInput;whiteSpace=wrap;html=1;" vertex="1" parent="1">
          <mxGeometry x="82.5" y="350" width="110" height="60" as="geometry" />
        </mxCell>
        <mxCell id="n05Avh_tll3DnBHPuBn5-45" style="edgeStyle=orthogonalEdgeStyle;rounded=0;orthogonalLoop=1;jettySize=auto;html=1;" edge="1" parent="1" source="n05Avh_tll3DnBHPuBn5-46">
          <mxGeometry relative="1" as="geometry">
            <mxPoint x="125" y="520" as="targetPoint" />
          </mxGeometry>
        </mxCell>
        <mxCell id="n05Avh_tll3DnBHPuBn5-46" value="&lt;div style=&quot;&quot;&gt;&quot;Período?&quot;&lt;/div&gt;" style="shape=display;whiteSpace=wrap;html=1;align=center;" vertex="1" parent="1">
          <mxGeometry x="50" y="450" width="150" height="50" as="geometry" />
        </mxCell>
        <mxCell id="n05Avh_tll3DnBHPuBn5-47" style="edgeStyle=orthogonalEdgeStyle;rounded=0;orthogonalLoop=1;jettySize=auto;html=1;" edge="1" parent="1" source="n05Avh_tll3DnBHPuBn5-48">
          <mxGeometry relative="1" as="geometry">
            <mxPoint x="132.5" y="610" as="targetPoint" />
          </mxGeometry>
        </mxCell>
        <mxCell id="n05Avh_tll3DnBHPuBn5-48" value="&lt;span style=&quot;font-size: 16px;&quot;&gt;p&lt;/span&gt;" style="shape=manualInput;whiteSpace=wrap;html=1;" vertex="1" parent="1">
          <mxGeometry x="77.5" y="520" width="110" height="60" as="geometry" />
        </mxCell>
        <mxCell id="n05Avh_tll3DnBHPuBn5-49" value="1" style="ellipse;whiteSpace=wrap;html=1;aspect=fixed;" vertex="1" parent="1">
          <mxGeometry x="107.5" y="620" width="50" height="50" as="geometry" />
        </mxCell>
        <mxCell id="n05Avh_tll3DnBHPuBn5-50" value="1" style="ellipse;whiteSpace=wrap;html=1;aspect=fixed;" vertex="1" parent="1">
          <mxGeometry x="496.25" y="20" width="50" height="50" as="geometry" />
        </mxCell>
        <mxCell id="n05Avh_tll3DnBHPuBn5-80" style="edgeStyle=orthogonalEdgeStyle;rounded=0;orthogonalLoop=1;jettySize=auto;html=1;" edge="1" parent="1" source="n05Avh_tll3DnBHPuBn5-51">
          <mxGeometry relative="1" as="geometry">
            <mxPoint x="515" y="170" as="targetPoint" />
          </mxGeometry>
        </mxCell>
        <mxCell id="n05Avh_tll3DnBHPuBn5-51" value="" style="rounded=0;whiteSpace=wrap;html=1;" vertex="1" parent="1">
          <mxGeometry x="466.25" y="100" width="97.5" height="45" as="geometry" />
        </mxCell>
        <mxCell id="n05Avh_tll3DnBHPuBn5-53" value="" style="endArrow=open;endFill=1;endSize=12;html=1;rounded=0;" edge="1" parent="1">
          <mxGeometry width="160" relative="1" as="geometry">
            <mxPoint x="535" y="122" as="sourcePoint" />
            <mxPoint x="495" y="122" as="targetPoint" />
          </mxGeometry>
        </mxCell>
        <mxCell id="n05Avh_tll3DnBHPuBn5-54" value="i" style="text;html=1;align=center;verticalAlign=middle;whiteSpace=wrap;rounded=0;" vertex="1" parent="1">
          <mxGeometry x="450" y="107.5" width="60" height="30" as="geometry" />
        </mxCell>
        <mxCell id="n05Avh_tll3DnBHPuBn5-55" value="1" style="text;html=1;align=center;verticalAlign=middle;whiteSpace=wrap;rounded=0;" vertex="1" parent="1">
          <mxGeometry x="525.62" y="107.5" width="60" height="30" as="geometry" />
        </mxCell>
        <mxCell id="n05Avh_tll3DnBHPuBn5-78" style="edgeStyle=orthogonalEdgeStyle;rounded=0;orthogonalLoop=1;jettySize=auto;html=1;entryX=0.5;entryY=0;entryDx=0;entryDy=0;" edge="1" parent="1" source="n05Avh_tll3DnBHPuBn5-56" target="n05Avh_tll3DnBHPuBn5-73">
          <mxGeometry relative="1" as="geometry" />
        </mxCell>
        <mxCell id="n05Avh_tll3DnBHPuBn5-83" style="edgeStyle=orthogonalEdgeStyle;rounded=0;orthogonalLoop=1;jettySize=auto;html=1;" edge="1" parent="1" source="n05Avh_tll3DnBHPuBn5-56">
          <mxGeometry relative="1" as="geometry">
            <mxPoint x="518.125" y="260" as="targetPoint" />
          </mxGeometry>
        </mxCell>
        <mxCell id="n05Avh_tll3DnBHPuBn5-56" value="" style="rhombus;whiteSpace=wrap;html=1;" vertex="1" parent="1">
          <mxGeometry x="466.25" y="180" width="103.75" height="60" as="geometry" />
        </mxCell>
        <mxCell id="n05Avh_tll3DnBHPuBn5-61" value="&lt;div style=&quot;text-align: left;&quot;&gt;&lt;font style=&quot;font-size: 14px;&quot;&gt;&lt;font style=&quot;&quot; face=&quot;Google Sans, Arial, sans-serif&quot; color=&quot;#1f1f1f&quot;&gt;&lt;span style=&quot;background-color: rgb(255, 255, 255);&quot;&gt;i&amp;nbsp;&lt;/span&gt;&lt;/font&gt;&lt;span style=&quot;background-color: rgb(255, 255, 255); color: rgb(31, 31, 31); font-family: &amp;quot;Google Sans&amp;quot;, Arial, sans-serif;&quot;&gt;≤ &lt;/span&gt;&lt;span style=&quot;background-color: rgb(255, 255, 255); color: rgb(31, 31, 31); font-family: &amp;quot;Google Sans&amp;quot;, Arial, sans-serif;&quot;&gt;&lt;font style=&quot;&quot;&gt;p&lt;/font&gt;&lt;/span&gt;&lt;/font&gt;&lt;/div&gt;" style="text;html=1;align=center;verticalAlign=middle;whiteSpace=wrap;rounded=0;" vertex="1" parent="1">
          <mxGeometry x="491.25" y="195" width="60" height="30" as="geometry" />
        </mxCell>
        <mxCell id="n05Avh_tll3DnBHPuBn5-84" style="edgeStyle=orthogonalEdgeStyle;rounded=0;orthogonalLoop=1;jettySize=auto;html=1;" edge="1" parent="1" source="n05Avh_tll3DnBHPuBn5-62">
          <mxGeometry relative="1" as="geometry">
            <mxPoint x="521.2449999999999" y="350" as="targetPoint" />
          </mxGeometry>
        </mxCell>
        <mxCell id="n05Avh_tll3DnBHPuBn5-62" value="" style="rounded=0;whiteSpace=wrap;html=1;" vertex="1" parent="1">
          <mxGeometry x="456.87" y="270" width="128.75" height="60" as="geometry" />
        </mxCell>
        <mxCell id="n05Avh_tll3DnBHPuBn5-65" value="" style="endArrow=open;endFill=1;endSize=12;html=1;rounded=0;" edge="1" parent="1">
          <mxGeometry width="160" relative="1" as="geometry">
            <mxPoint x="520" y="299.66" as="sourcePoint" />
            <mxPoint x="480" y="299.66" as="targetPoint" />
          </mxGeometry>
        </mxCell>
        <mxCell id="n05Avh_tll3DnBHPuBn5-66" value="c" style="text;html=1;align=center;verticalAlign=middle;whiteSpace=wrap;rounded=0;" vertex="1" parent="1">
          <mxGeometry x="450" y="285" width="40" height="30" as="geometry" />
        </mxCell>
        <mxCell id="n05Avh_tll3DnBHPuBn5-67" value="(1+j/100)*c" style="text;html=1;align=center;verticalAlign=middle;whiteSpace=wrap;rounded=0;" vertex="1" parent="1">
          <mxGeometry x="525.62" y="287.5" width="60" height="25" as="geometry" />
        </mxCell>
        <mxCell id="n05Avh_tll3DnBHPuBn5-85" style="edgeStyle=orthogonalEdgeStyle;rounded=0;orthogonalLoop=1;jettySize=auto;html=1;" edge="1" parent="1" source="n05Avh_tll3DnBHPuBn5-68">
          <mxGeometry relative="1" as="geometry">
            <mxPoint x="515" y="440" as="targetPoint" />
          </mxGeometry>
        </mxCell>
        <mxCell id="n05Avh_tll3DnBHPuBn5-68" value="&lt;div style=&quot;&quot;&gt;i, &quot;o.mês: &quot;, c&lt;/div&gt;" style="shape=display;whiteSpace=wrap;html=1;align=center;" vertex="1" parent="1">
          <mxGeometry x="440" y="360" width="150" height="50" as="geometry" />
        </mxCell>
        <mxCell id="n05Avh_tll3DnBHPuBn5-77" style="edgeStyle=orthogonalEdgeStyle;rounded=0;orthogonalLoop=1;jettySize=auto;html=1;entryX=0;entryY=0.5;entryDx=0;entryDy=0;" edge="1" parent="1" source="n05Avh_tll3DnBHPuBn5-69" target="n05Avh_tll3DnBHPuBn5-56">
          <mxGeometry relative="1" as="geometry">
            <Array as="points">
              <mxPoint x="410" y="465" />
              <mxPoint x="410" y="210" />
            </Array>
          </mxGeometry>
        </mxCell>
        <mxCell id="n05Avh_tll3DnBHPuBn5-69" value="" style="rounded=0;whiteSpace=wrap;html=1;" vertex="1" parent="1">
          <mxGeometry x="470" y="442.5" width="110" height="45" as="geometry" />
        </mxCell>
        <mxCell id="n05Avh_tll3DnBHPuBn5-70" value="" style="endArrow=open;endFill=1;endSize=12;html=1;rounded=0;" edge="1" parent="1">
          <mxGeometry width="160" relative="1" as="geometry">
            <mxPoint x="545" y="462" as="sourcePoint" />
            <mxPoint x="505" y="462" as="targetPoint" />
          </mxGeometry>
        </mxCell>
        <mxCell id="n05Avh_tll3DnBHPuBn5-71" value="i" style="text;html=1;align=center;verticalAlign=middle;whiteSpace=wrap;rounded=0;" vertex="1" parent="1">
          <mxGeometry x="460" y="450" width="60" height="30" as="geometry" />
        </mxCell>
        <mxCell id="n05Avh_tll3DnBHPuBn5-72" value="i + 1" style="text;html=1;align=center;verticalAlign=middle;whiteSpace=wrap;rounded=0;" vertex="1" parent="1">
          <mxGeometry x="530" y="447.5" width="60" height="30" as="geometry" />
        </mxCell>
        <mxCell id="n05Avh_tll3DnBHPuBn5-73" value="Fim" style="rounded=1;whiteSpace=wrap;html=1;arcSize=50;" vertex="1" parent="1">
          <mxGeometry x="650" y="330" width="125" height="60" as="geometry" />
        </mxCell>
        <mxCell id="n05Avh_tll3DnBHPuBn5-79" style="edgeStyle=orthogonalEdgeStyle;rounded=0;orthogonalLoop=1;jettySize=auto;html=1;entryX=0.564;entryY=0;entryDx=0;entryDy=0;entryPerimeter=0;" edge="1" parent="1" source="n05Avh_tll3DnBHPuBn5-50" target="n05Avh_tll3DnBHPuBn5-51">
          <mxGeometry relative="1" as="geometry" />
        </mxCell>
        <mxCell id="n05Avh_tll3DnBHPuBn5-86" value="F" style="text;html=1;align=center;verticalAlign=middle;whiteSpace=wrap;rounded=0;" vertex="1" parent="1">
          <mxGeometry x="590" y="180" width="60" height="30" as="geometry" />
        </mxCell>
        <mxCell id="n05Avh_tll3DnBHPuBn5-88" value="V" style="text;html=1;align=center;verticalAlign=middle;whiteSpace=wrap;rounded=0;" vertex="1" parent="1">
          <mxGeometry x="530" y="240" width="60" height="30" as="geometry" />
        </mxCell>
      </root>
    </mxGraphModel>
  </diagram>
</mxfile>
